<svg width="40" height="40" viewBox="0 0 40 40" fill="none" xmlns="http://www.w3.org/2000/svg">
<path d="M28.9999 20.79C28.8426 22.4922 28.2038 24.1144 27.1581 25.4668C26.1125 26.8192 24.7034 27.8458 23.0956 28.4265C21.4878 29.0073 19.7479 29.1181 18.0794 28.7461C16.4109 28.3741 14.8829 27.5345 13.6741 26.3258C12.4654 25.117 11.6258 23.589 11.2538 21.9205C10.8818 20.252 10.9926 18.5121 11.5734 16.9043C12.1541 15.2965 13.1807 13.8874 14.5331 12.8418C15.8855 11.7961 17.5077 11.1573 19.2099 11C18.2133 12.3483 17.7338 14.0094 17.8584 15.6814C17.9831 17.3534 18.7038 18.9251 19.8893 20.1106C21.0748 21.2961 22.6465 22.0168 24.3185 22.1415C25.9905 22.2662 27.6516 21.7866 28.9999 20.79Z" stroke="white" stroke-opacity="0.8" stroke-width="2" stroke-linecap="round" stroke-linejoin="round"/>
</svg>
