<svg width="104" height="104" viewBox="0 0 104 104" fill="none" xmlns="http://www.w3.org/2000/svg">
<rect x="2" y="2" width="100" height="100" rx="50" fill="url(#paint0_linear_955_4024)"/>
<rect x="2" y="2" width="100" height="100" rx="50" fill="url(#paint1_linear_955_4024)"/>
<path d="M49.9624 77.0909V26.1818H53.2237V77.0909H49.9624ZM60.1641 41.9716C59.9519 40.089 59.0769 38.6307 57.5391 37.5966C56.0012 36.5492 54.0656 36.0256 51.7322 36.0256C50.0618 36.0256 48.6167 36.2907 47.397 36.821C46.1773 37.3381 45.2294 38.054 44.5533 38.9688C43.8904 39.8703 43.5589 40.8977 43.5589 42.0511C43.5589 43.0189 43.7843 43.8542 44.2351 44.5568C44.6991 45.2595 45.3023 45.8494 46.0447 46.3267C46.8004 46.7907 47.6091 47.1818 48.4709 47.5C49.3326 47.8049 50.1612 48.0568 50.9567 48.2557L54.9339 49.2898C56.2332 49.608 57.5656 50.0388 58.9311 50.5824C60.2966 51.1259 61.5627 51.8419 62.7294 52.7301C63.8961 53.6184 64.8374 54.7188 65.5533 56.0312C66.2824 57.3438 66.647 58.9148 66.647 60.7443C66.647 63.0511 66.0504 65.0994 64.8572 66.8892C63.6773 68.679 61.9605 70.0909 59.7067 71.125C57.4661 72.1591 54.755 72.6761 51.5732 72.6761C48.5239 72.6761 45.8857 72.1922 43.6584 71.2244C41.4311 70.2566 39.6877 68.8845 38.4283 67.108C37.1688 65.3182 36.4728 63.197 36.3402 60.7443H42.505C42.6243 62.2159 43.1016 63.4422 43.9368 64.4233C44.7853 65.3911 45.8658 66.1136 47.1783 66.5909C48.504 67.0549 49.9557 67.2869 51.5334 67.2869C53.2701 67.2869 54.8146 67.0152 56.1669 66.4716C57.5324 65.9148 58.6063 65.1458 59.3885 64.1648C60.1707 63.1705 60.5618 62.0104 60.5618 60.6847C60.5618 59.4782 60.2171 58.4905 59.5277 57.7216C58.8516 56.9527 57.9302 56.3163 56.7635 55.8125C55.6101 55.3087 54.3042 54.8646 52.8459 54.4801L48.0334 53.1676C44.772 52.2794 42.1868 50.9735 40.2777 49.25C38.3819 47.5265 37.4339 45.2462 37.4339 42.4091C37.4339 40.0625 38.0703 38.0142 39.343 36.2642C40.6158 34.5142 42.3393 33.1553 44.5135 32.1875C46.6877 31.2064 49.1404 30.7159 51.8714 30.7159C54.629 30.7159 57.0618 31.1998 59.1697 32.1676C61.291 33.1354 62.9614 34.4678 64.1811 36.1648C65.4008 37.8485 66.0372 39.7841 66.0902 41.9716H60.1641Z" fill="white"/>
<rect x="2" y="2" width="100" height="100" rx="50" stroke="#F1F5F9" stroke-width="4"/>
<defs>
<linearGradient id="paint0_linear_955_4024" x1="19.5" y1="85" x2="171.5" y2="-61" gradientUnits="userSpaceOnUse">
<stop/>
<stop offset="1" stop-color="#434343"/>
</linearGradient>
<linearGradient id="paint1_linear_955_4024" x1="78.24" y1="4" x2="14.5235" y2="81.084" gradientUnits="userSpaceOnUse">
<stop stop-color="#010417"/>
<stop offset="1" stop-color="#2B333F"/>
</linearGradient>
</defs>
</svg>
