<svg width="40" height="40" viewBox="0 0 40 40" fill="none" xmlns="http://www.w3.org/2000/svg">
<g clip-path="url(#clip0_11590_1049)">
<path d="M20 25C22.7614 25 25 22.7614 25 20C25 17.2386 22.7614 15 20 15C17.2386 15 15 17.2386 15 20C15 22.7614 17.2386 25 20 25Z" stroke="#111111" stroke-opacity="0.8" stroke-width="2" stroke-linecap="round" stroke-linejoin="round"/>
<path d="M20 9V11" stroke="#111111" stroke-opacity="0.8" stroke-width="2" stroke-linecap="round" stroke-linejoin="round"/>
<path d="M20 29V31" stroke="#111111" stroke-opacity="0.8" stroke-width="2" stroke-linecap="round" stroke-linejoin="round"/>
<path d="M12.2202 12.2202L13.6402 13.6402" stroke="#111111" stroke-opacity="0.8" stroke-width="2" stroke-linecap="round" stroke-linejoin="round"/>
<path d="M26.3599 26.3599L27.7799 27.7799" stroke="#111111" stroke-opacity="0.8" stroke-width="2" stroke-linecap="round" stroke-linejoin="round"/>
<path d="M9 20H11" stroke="#111111" stroke-opacity="0.8" stroke-width="2" stroke-linecap="round" stroke-linejoin="round"/>
<path d="M29 20H31" stroke="#111111" stroke-opacity="0.8" stroke-width="2" stroke-linecap="round" stroke-linejoin="round"/>
<path d="M12.2202 27.7799L13.6402 26.3599" stroke="#111111" stroke-opacity="0.8" stroke-width="2" stroke-linecap="round" stroke-linejoin="round"/>
<path d="M26.3599 13.6402L27.7799 12.2202" stroke="#111111" stroke-opacity="0.8" stroke-width="2" stroke-linecap="round" stroke-linejoin="round"/>
</g>
<defs>
<clipPath id="clip0_11590_1049">
<rect width="24" height="24" fill="white" transform="translate(8 8)"/>
</clipPath>
</defs>
</svg>
