<svg width="105" height="104" viewBox="0 0 105 104" fill="none" xmlns="http://www.w3.org/2000/svg">
<rect x="2.14307" y="2" width="100" height="100" rx="50" fill="url(#paint0_linear_955_3980)"/>
<path d="M75.2642 45.0905C76.3168 38.0423 70.9489 34.2551 63.6033 31.7264L65.9828 22.1746L60.1718 20.7269L57.8558 30.0239C56.33 29.6438 54.7601 29.2832 53.2015 28.9299L55.5329 19.5713L49.7219 18.1236L47.3403 27.6663C46.0757 27.3774 44.8317 27.0937 43.6267 26.7936L43.6339 26.7648L35.6196 24.7639L34.0728 30.9728C34.0728 30.9728 38.3868 31.9602 38.2933 32.0199C40.6498 32.6069 41.0746 34.1626 41.0027 35.398L38.2923 46.2781C38.4568 46.319 38.6645 46.3795 38.8948 46.4718L38.282 46.3192L34.4807 61.5609C34.1935 62.2754 33.4635 63.3469 31.8175 62.9412C31.8751 63.0254 27.5939 61.889 27.5939 61.889L24.7092 68.542L32.2763 70.4271C33.6828 70.7775 35.0625 71.1474 36.4176 71.4937L34.0155 81.1535L39.8224 82.6002L42.203 73.0442C43.7864 73.4735 45.3255 73.8701 46.8348 74.2461L44.4614 83.7558L50.2724 85.2034L52.6734 75.5652C62.5841 77.4402 70.0451 76.683 73.1786 67.7164C75.7062 60.4984 73.0536 56.3309 67.8377 53.6166C71.6402 52.7472 74.5028 50.2505 75.2642 45.0905ZM61.9853 63.7139C60.1876 70.9302 48.0333 67.0333 44.0893 66.0508L47.2781 53.2505C51.22 54.2412 63.8599 56.1891 61.9853 63.7139ZM63.7772 44.9845C62.1413 51.5512 52.0186 48.2128 48.7358 47.3993L51.6265 35.7956C54.9124 36.6142 65.4868 38.1392 63.7772 44.9845Z" fill="white"/>
<path d="M38.3657 46.0254L39.2294 46.2405L39.0706 46.8779L38.2069 46.6627L38.3657 46.0254Z" fill="white"/>
<rect x="2.14307" y="2" width="100" height="100" rx="50" stroke="#F1F5F9" stroke-width="4"/>
<defs>
<linearGradient id="paint0_linear_955_3980" x1="-12.4388" y1="167.2" x2="82.6885" y2="4" gradientUnits="userSpaceOnUse">
<stop stop-color="#FF930F"/>
<stop offset="1" stop-color="#FBC411"/>
</linearGradient>
</defs>
</svg>
