<svg width="96" height="96" viewBox="0 0 96 96" fill="none" xmlns="http://www.w3.org/2000/svg">
<rect width="96" height="96" rx="48" fill="url(#paint0_linear_955_4382)"/>
<path d="M45.9624 73.0909V22.1818H49.2237V73.0909H45.9624ZM56.1641 37.9716C55.9519 36.089 55.0769 34.6307 53.5391 33.5966C52.0012 32.5492 50.0656 32.0256 47.7322 32.0256C46.0618 32.0256 44.6167 32.2907 43.397 32.821C42.1773 33.3381 41.2294 34.054 40.5533 34.9688C39.8904 35.8703 39.5589 36.8977 39.5589 38.0511C39.5589 39.0189 39.7843 39.8542 40.2351 40.5568C40.6991 41.2595 41.3023 41.8494 42.0447 42.3267C42.8004 42.7907 43.6091 43.1818 44.4709 43.5C45.3326 43.8049 46.1612 44.0568 46.9567 44.2557L50.9339 45.2898C52.2332 45.608 53.5656 46.0388 54.9311 46.5824C56.2966 47.1259 57.5627 47.8419 58.7294 48.7301C59.8961 49.6184 60.8374 50.7188 61.5533 52.0312C62.2824 53.3438 62.647 54.9148 62.647 56.7443C62.647 59.0511 62.0504 61.0994 60.8572 62.8892C59.6773 64.679 57.9605 66.0909 55.7067 67.125C53.4661 68.1591 50.755 68.6761 47.5732 68.6761C44.5239 68.6761 41.8857 68.1922 39.6584 67.2244C37.4311 66.2566 35.6877 64.8845 34.4283 63.108C33.1688 61.3182 32.4728 59.197 32.3402 56.7443H38.505C38.6243 58.2159 39.1016 59.4422 39.9368 60.4233C40.7853 61.3911 41.8658 62.1136 43.1783 62.5909C44.504 63.0549 45.9557 63.2869 47.5334 63.2869C49.2701 63.2869 50.8146 63.0152 52.1669 62.4716C53.5324 61.9148 54.6063 61.1458 55.3885 60.1648C56.1707 59.1705 56.5618 58.0104 56.5618 56.6847C56.5618 55.4782 56.2171 54.4905 55.5277 53.7216C54.8516 52.9527 53.9302 52.3163 52.7635 51.8125C51.6101 51.3087 50.3042 50.8646 48.8459 50.4801L44.0334 49.1676C40.772 48.2794 38.1868 46.9735 36.2777 45.25C34.3819 43.5265 33.4339 41.2462 33.4339 38.4091C33.4339 36.0625 34.0703 34.0142 35.343 32.2642C36.6158 30.5142 38.3393 29.1553 40.5135 28.1875C42.6877 27.2064 45.1404 26.7159 47.8714 26.7159C50.629 26.7159 53.0618 27.1998 55.1697 28.1676C57.291 29.1354 58.9614 30.4678 60.1811 32.1648C61.4008 33.8485 62.0372 35.7841 62.0902 37.9716H56.1641Z" fill="white"/>
<defs>
<linearGradient id="paint0_linear_955_4382" x1="-1.82758" y1="178.969" x2="111.061" y2="154.577" gradientUnits="userSpaceOnUse">
<stop stop-color="#181818"/>
<stop offset="1" stop-color="#2F2F2F"/>
</linearGradient>
</defs>
</svg>
