<svg width="105" height="104" viewBox="0 0 105 104" fill="none" xmlns="http://www.w3.org/2000/svg">
<rect x="2.42871" y="2" width="100" height="100" rx="50" fill="url(#paint0_linear_955_3976)"/>
<path d="M68.8175 30.7903H36.0374C30.0103 30.7903 26.1904 37.2917 29.2225 42.5475L49.4531 77.6129C50.7733 79.9025 54.0817 79.9025 55.4018 77.6129L75.6366 42.5475C78.6647 37.3001 74.8446 30.7903 68.8216 30.7903H68.8175ZM49.4366 67.0973L45.0307 58.5703L34.3998 39.5566C33.6985 38.3397 34.5647 36.7802 36.0333 36.7802H49.4325V67.1014L49.4366 67.0973ZM70.4469 39.5525L59.8201 58.5744L55.4142 67.0973V36.7761H68.8134C70.282 36.7761 71.1482 38.3355 70.4469 39.5525Z" fill="white"/>
<rect x="2.42871" y="2" width="100" height="100" rx="50" stroke="#F1F5F9" stroke-width="4"/>
<defs>
<linearGradient id="paint0_linear_955_3976" x1="93.8833" y1="-3.41818" x2="18.3923" y2="121.382" gradientUnits="userSpaceOnUse">
<stop stop-color="#04BEFE"/>
<stop offset="1" stop-color="#4481EB"/>
</linearGradient>
</defs>
</svg>
