<svg width="105" height="104" viewBox="0 0 105 104" fill="none" xmlns="http://www.w3.org/2000/svg">
<rect x="2.71436" y="2" width="100" height="100" rx="50" fill="url(#paint0_linear_955_3970)"/>
<path d="M75.5022 26.6909H29.3081V37.8431H46.8291V54.2347H57.9812V37.8431H75.5022V26.6909Z" fill="white"/>
<path d="M52.5113 55.9808C38.0174 55.9808 26.2666 53.6869 26.2666 50.8569C26.2666 48.0274 38.0169 45.7331 52.5113 45.7331C67.0051 45.7331 78.7554 48.0274 78.7554 50.8569C78.7554 53.6869 67.0051 55.9808 52.5113 55.9808ZM81.9795 51.7111C81.9795 48.0621 68.7863 45.1042 52.5113 45.1042C36.2367 45.1042 23.0425 48.0621 23.0425 51.7111C23.0425 54.9246 33.2731 57.6019 46.8298 58.1951V81.7258H57.981V58.2044C71.6421 57.6297 81.9795 54.9412 81.9795 51.7111Z" fill="white"/>
<rect x="2.71436" y="2" width="100" height="100" rx="50" stroke="#F1F5F9" stroke-width="4"/>
<defs>
<linearGradient id="paint0_linear_955_3970" x1="13.878" y1="135.782" x2="61.4416" y2="34.5454" gradientUnits="userSpaceOnUse">
<stop stop-color="#8DDAD5"/>
<stop offset="1" stop-color="#1BA27A"/>
</linearGradient>
</defs>
</svg>
